#N canvas 378 92 1073 883 12;
#X obj 40 608 vcf~ 0.25;
#X obj 144 71 hsl 50 15 0 1 0 0 empty empty Gain -2 -8 0 10 #fcfcfc
#000000 #000000 0 1;
#X obj 46 73 hsl 50 15 20 2000 0 0 empty empty Frequency -2 -8 0 10
#fcfcfc #000000 #000000 0 1;
#X obj 74 513 hsl 50 15 100 10000 0 0 empty empty Cutoff -2 -8 0 10
#fcfcfc #000000 #000000 0 1;
#X floatatom 43 93 5 0 0 0 - - - 0;
#X obj 141 106 pow 2;
#X obj 141 130 * 2;
#X obj 141 171 + 1;
#X floatatom 141 211 5 0 0 0 - - - 0;
#X obj 43 116 osc~;
#X obj 43 210 *~;
#X obj 43 234 expr~ if($v1 > 1 \, 2 - $v1 \, $v1);
#X obj 43 258 expr~ if($v1 < -1 \, -2 - $v1 \, $v1);
#X floatatom 71 533 8 0 0 0 - - - 0;
#X obj 39 701 *~;
#X floatatom 148 643 5 0 1 2 Volume - - 0;
#X obj 43 841 dac~;
#X obj 151 310 key;
#X obj 151 367 bng 15 250 50 0 empty empty empty 17 7 0 10 #fcfcfc
#000000 #000000;
#X obj 151 334 sel 32;
#X obj 229 367 bng 15 250 50 0 empty empty empty 17 7 0 10 #fcfcfc
#000000 #000000;
#X obj 229 335 sel 32;
#X obj 229 311 keyup;
#X obj 151 445 f 1000;
#X msg 151 469 1 \$1;
#X obj 151 511 line 0 1;
#X obj 100 571 *;
#X obj 229 443 f 1000;
#X msg 229 467 0 \$1;
#X msg 110 469 0;
#X floatatom 190 406 5 0 5000 2 Attack - - 0;
#X floatatom 268 406 5 0 10000 2 Release - - 0;
#X obj 151 535 pow 4;
#X floatatom 149 574 5 0 10 2 Resonance - - 0;
#X obj 365 195 hsl 50 15 0 127 0 0 empty empty empty -2 -8 0 10 #fcfcfc
#000000 #000000 0 1;
#X obj 362 294 bng 15 250 50 0 empty empty empty 17 7 0 10 #fcfcfc
#000000 #000000;
#X obj 88 841 s~;
#X obj 362 63 r~;
#X floatatom 362 109 5 0 0 0 - - - 0;
#X obj 362 86 env~;
#X obj 362 268 spigot;
#X obj 429 242 tgl 15 0 empty empty empty 17 7 0 10 #fcfcfc #000000
#000000 0 1;
#X obj 429 220 bng 15 250 50 0 empty empty empty 17 7 0 10 #fcfcfc
#000000 #000000;
#X obj 429 195 threshold~ 96 1 95 1;
#X floatatom 362 363 5 0 0 0 - - - 0;
#X obj 362 419 bng 15 250 50 0 empty empty empty 17 7 0 10 #fcfcfc
#000000 #000000;
#X obj 378 419 bng 15 250 50 0 empty empty empty 17 7 0 10 #fcfcfc
#000000 #000000;
#X obj 394 419 bng 15 250 50 0 empty empty empty 17 7 0 10 #fcfcfc
#000000 #000000;
#X obj 410 419 bng 15 250 50 0 empty empty empty 17 7 0 10 #fcfcfc
#000000 #000000;
#X obj 427 419 bng 15 250 50 0 empty empty empty 17 7 0 10 #fcfcfc
#000000 #000000;
#X obj 443 419 bng 15 250 50 0 empty empty empty 17 7 0 10 #fcfcfc
#000000 #000000;
#X obj 459 419 bng 15 250 50 0 empty empty empty 17 7 0 10 #fcfcfc
#000000 #000000;
#X obj 475 419 bng 15 250 50 0 empty empty empty 17 7 0 10 #fcfcfc
#000000 #000000;
#X obj 492 419 bng 15 250 50 0 empty empty empty 17 7 0 10 #fcfcfc
#000000 #000000;
#X obj 362 314 f;
#X obj 402 314 + 1;
#X obj 357 665 bng 15 250 50 0 empty empty empty 17 7 0 10 #fcfcfc
#000000 #000000;
#X obj 373 665 bng 15 250 50 0 empty empty empty 17 7 0 10 #fcfcfc
#000000 #000000;
#X obj 389 665 bng 15 250 50 0 empty empty empty 17 7 0 10 #fcfcfc
#000000 #000000;
#X obj 405 665 bng 15 250 50 0 empty empty empty 17 7 0 10 #fcfcfc
#000000 #000000;
#X obj 422 665 bng 15 250 50 0 empty empty empty 17 7 0 10 #fcfcfc
#000000 #000000;
#X obj 438 665 bng 15 250 50 0 empty empty empty 17 7 0 10 #fcfcfc
#000000 #000000;
#X obj 454 665 bng 15 250 50 0 empty empty empty 17 7 0 10 #fcfcfc
#000000 #000000;
#X obj 470 665 bng 15 250 50 0 empty empty empty 17 7 0 10 #fcfcfc
#000000 #000000;
#X obj 487 665 bng 15 250 50 0 empty empty empty 17 7 0 10 #fcfcfc
#000000 #000000;
#X obj 357 632 sel 0 1 2 3 4 5 6 7;
#X obj 362 386 sel 0 1 2 3 4 5 6 7;
#X floatatom 360 537 5 0 0 0 - - - 0;
#X obj 448 542 bng 15 250 50 0 empty empty empty 17 7 0 10 #fcfcfc
#000000 #000000;
#X obj 360 513 cyclone/urn 9;
#X floatatom 448 484 5 0 0 0 - - - 0;
#X floatatom 702 426 5 0 0 0 - - - 0;
#X obj 790 431 bng 15 250 50 0 empty empty empty 17 7 0 10 #fcfcfc
#000000 #000000;
#X obj 702 402 cyclone/urn 9;
#X floatatom 790 370 5 0 0 0 - - - 0;
#X msg 573 348 clear;
#X floatatom 818 427 5 0 0 0 - - - 0;
#X obj 906 432 bng 15 250 50 0 empty empty empty 17 7 0 10 #fcfcfc
#000000 #000000;
#X obj 818 403 cyclone/urn 9;
#X floatatom 906 371 5 0 0 0 - - - 0;
#X floatatom 940 429 5 0 0 0 - - - 0;
#X obj 1028 434 bng 15 250 50 0 empty empty empty 17 7 0 10 #fcfcfc
#000000 #000000;
#X obj 940 405 cyclone/urn 9;
#X floatatom 1028 373 5 0 0 0 - - - 0;
#X floatatom 701 513 5 0 0 0 - - - 0;
#X obj 789 518 bng 15 250 50 0 empty empty empty 17 7 0 10 #fcfcfc
#000000 #000000;
#X obj 701 489 cyclone/urn 9;
#X floatatom 789 457 5 0 0 0 - - - 0;
#X floatatom 830 514 5 0 0 0 - - - 0;
#X obj 918 519 bng 15 250 50 0 empty empty empty 17 7 0 10 #fcfcfc
#000000 #000000;
#X obj 830 490 cyclone/urn 9;
#X floatatom 918 458 5 0 0 0 - - - 0;
#X floatatom 942 515 5 0 0 0 - - - 0;
#X obj 1030 520 bng 15 250 50 0 empty empty empty 17 7 0 10 #fcfcfc
#000000 #000000;
#X obj 942 491 cyclone/urn 9;
#X floatatom 1030 459 5 0 0 0 - - - 0;
#X floatatom 703 596 5 0 0 0 - - - 0;
#X obj 791 601 bng 15 250 50 0 empty empty empty 17 7 0 10 #fcfcfc
#000000 #000000;
#X obj 703 572 cyclone/urn 9;
#X floatatom 791 541 5 0 0 0 - - - 0;
#X floatatom 829 600 5 0 0 0 - - - 0;
#X obj 917 605 bng 15 250 50 0 empty empty empty 17 7 0 10 #fcfcfc
#000000 #000000;
#X obj 829 576 cyclone/urn 9;
#X floatatom 917 545 5 0 0 0 - - - 0;
#X text 451 241 Make sure this is off at the start;
#X text 127 284 Hold and release space bar;
#X obj 362 338 % 9;
#X obj 429 2 loadbang;
#X obj 431 130 f 100.8;
#X obj 44 1 r freq;
#X obj 506 130 f 0.959;
#X obj 142 0 r gain;
#X msg 431 106 send freq;
#X msg 506 106 send gain;
#X msg 580 106 send attack;
#X msg 667 105 send release;
#X msg 597 47 send cutoff;
#X msg 686 48 send resonance;
#X msg 508 47 send volume;
#X obj 508 71 i 1;
#X obj 598 71 f 5757.14;
#X obj 687 71 i 10;
#X obj 580 130 i 2697;
#X obj 668 129 i 5224;
#X obj 801 69 i 9;
#X msg 800 46 send urn;
#X obj 883 217 r urn;
#X msg 863 706 0;
#X text 494 325 Use this message to reset urns;
#X obj 67 367 r attack;
#X obj 268 367 r release;
#X obj 71 434 r cutoff;
#X obj 219 535 r resonance;
#X obj 148 599 r volume;
#X symbolatom 650 816 25 0 0 0 - - - 36;
#X obj 572 303 bng 15 250 50 0 empty empty empty 17 7 0 10 #fcfcfc
#000000 #000000;
#X obj 572 273 metro 1000;
#X msg 357 701 set name2;
#X msg 357 681 set name1;
#X msg 357 721 set name3;
#X msg 357 741 set name4;
#X msg 357 761 set name5;
#X msg 357 781 set name6;
#X msg 357 801 set name7;
#X msg 357 821 set name8;
#X msg 357 840 set name9;
#X connect 0 0 14 0;
#X connect 0 1 14 0;
#X connect 1 0 5 0;
#X connect 2 0 4 0;
#X connect 3 0 13 0;
#X connect 4 0 9 0;
#X connect 5 0 6 0;
#X connect 6 0 7 0;
#X connect 7 0 8 0;
#X connect 7 0 10 1;
#X connect 9 0 10 0;
#X connect 10 0 11 0;
#X connect 11 0 12 0;
#X connect 12 0 0 0;
#X connect 13 0 0 1;
#X connect 13 0 26 1;
#X connect 14 0 16 0;
#X connect 14 0 16 1;
#X connect 14 0 36 0;
#X connect 15 0 14 1;
#X connect 17 0 19 0;
#X connect 18 0 23 0;
#X connect 19 0 18 0;
#X connect 20 0 27 0;
#X connect 21 0 20 0;
#X connect 22 0 21 0;
#X connect 23 0 24 0;
#X connect 24 0 25 0;
#X connect 25 0 32 0;
#X connect 26 0 0 1;
#X connect 27 0 28 0;
#X connect 28 0 25 0;
#X connect 29 0 25 0;
#X connect 30 0 23 1;
#X connect 31 0 27 1;
#X connect 32 0 26 0;
#X connect 33 0 0 2;
#X connect 34 0 40 0;
#X connect 35 0 54 0;
#X connect 37 0 39 0;
#X connect 38 0 34 0;
#X connect 38 0 43 0;
#X connect 39 0 38 0;
#X connect 40 0 35 0;
#X connect 41 0 40 1;
#X connect 41 0 136 0;
#X connect 42 0 41 0;
#X connect 43 0 42 0;
#X connect 44 0 66 0;
#X connect 45 0 69 0;
#X connect 46 0 69 0;
#X connect 47 0 69 0;
#X connect 48 0 69 0;
#X connect 49 0 69 0;
#X connect 50 0 69 0;
#X connect 51 0 69 0;
#X connect 52 0 69 0;
#X connect 53 0 69 0;
#X connect 54 0 55 0;
#X connect 54 0 106 0;
#X connect 55 0 54 1;
#X connect 56 0 138 0;
#X connect 57 0 137 0;
#X connect 58 0 139 0;
#X connect 59 0 140 0;
#X connect 60 0 141 0;
#X connect 61 0 142 0;
#X connect 62 0 143 0;
#X connect 63 0 144 0;
#X connect 64 0 145 0;
#X connect 65 0 56 0;
#X connect 65 1 57 0;
#X connect 65 2 58 0;
#X connect 65 3 59 0;
#X connect 65 4 60 0;
#X connect 65 5 61 0;
#X connect 65 6 62 0;
#X connect 65 7 63 0;
#X connect 65 8 64 0;
#X connect 66 0 45 0;
#X connect 66 1 46 0;
#X connect 66 2 47 0;
#X connect 66 3 48 0;
#X connect 66 4 49 0;
#X connect 66 5 50 0;
#X connect 66 6 51 0;
#X connect 66 7 52 0;
#X connect 66 8 53 0;
#X connect 67 0 65 0;
#X connect 68 0 73 0;
#X connect 69 0 67 0;
#X connect 69 1 68 0;
#X connect 70 0 69 1;
#X connect 71 0 65 0;
#X connect 72 0 78 0;
#X connect 73 0 71 0;
#X connect 73 1 72 0;
#X connect 74 0 73 1;
#X connect 75 0 73 0;
#X connect 75 0 78 0;
#X connect 75 0 82 0;
#X connect 75 0 86 0;
#X connect 75 0 90 0;
#X connect 75 0 102 0;
#X connect 75 0 98 0;
#X connect 75 0 94 0;
#X connect 75 0 69 0;
#X connect 76 0 65 0;
#X connect 77 0 82 0;
#X connect 78 0 76 0;
#X connect 78 1 77 0;
#X connect 79 0 78 1;
#X connect 80 0 65 0;
#X connect 81 0 86 0;
#X connect 82 0 80 0;
#X connect 82 1 81 0;
#X connect 83 0 82 1;
#X connect 84 0 65 0;
#X connect 85 0 90 0;
#X connect 86 0 84 0;
#X connect 86 1 85 0;
#X connect 87 0 86 1;
#X connect 88 0 65 0;
#X connect 89 0 94 0;
#X connect 90 0 88 0;
#X connect 90 1 89 0;
#X connect 91 0 90 1;
#X connect 92 0 65 0;
#X connect 93 0 98 0;
#X connect 94 0 92 0;
#X connect 94 1 93 0;
#X connect 95 0 94 1;
#X connect 96 0 65 0;
#X connect 97 0 102 0;
#X connect 98 0 96 0;
#X connect 98 1 97 0;
#X connect 99 0 98 1;
#X connect 100 0 65 0;
#X connect 102 0 100 0;
#X connect 102 1 101 0;
#X connect 103 0 102 1;
#X connect 106 0 44 0;
#X connect 107 0 112 0;
#X connect 107 0 113 0;
#X connect 107 0 118 0;
#X connect 107 0 116 0;
#X connect 107 0 117 0;
#X connect 107 0 114 0;
#X connect 107 0 115 0;
#X connect 107 0 125 0;
#X connect 109 0 2 0;
#X connect 111 0 1 0;
#X connect 112 0 108 0;
#X connect 113 0 110 0;
#X connect 114 0 122 0;
#X connect 115 0 123 0;
#X connect 116 0 120 0;
#X connect 117 0 121 0;
#X connect 118 0 119 0;
#X connect 125 0 124 0;
#X connect 126 0 74 0;
#X connect 126 0 79 0;
#X connect 126 0 83 0;
#X connect 126 0 87 0;
#X connect 126 0 91 0;
#X connect 126 0 95 0;
#X connect 126 0 99 0;
#X connect 126 0 103 0;
#X connect 126 0 70 0;
#X connect 127 0 96 0;
#X connect 127 0 100 0;
#X connect 127 0 92 0;
#X connect 127 0 88 0;
#X connect 127 0 84 0;
#X connect 127 0 71 0;
#X connect 127 0 76 0;
#X connect 127 0 80 0;
#X connect 129 0 30 0;
#X connect 130 0 31 0;
#X connect 131 0 3 0;
#X connect 132 0 33 0;
#X connect 133 0 15 0;
#X connect 135 0 75 0;
#X connect 135 0 127 0;
#X connect 136 0 135 0;
#X connect 137 0 134 0;
#X connect 138 0 134 0;
#X connect 139 0 134 0;
#X connect 140 0 134 0;
#X connect 141 0 134 0;
#X connect 142 0 134 0;
#X connect 143 0 134 0;
#X connect 144 0 134 0;
#X connect 145 0 134 0;
